<svg id="Layer_1" data-name="Layer 1" xmlns="http://www.w3.org/2000/svg" viewBox="0 0 454.87 334.94"><defs><style>.cls-1{fill:#462719;}.cls-2{fill:#cc8034;}</style></defs><title>UBUNTU_IDV</title><path class="cls-1" d="M454.15,89.18A113.05,113.05,0,0,0,378,57.65a2.38,2.38,0,0,0-2.4,2.38v108.2a1.18,1.18,0,0,0,2,.84l76.51-76.51A2.37,2.37,0,0,0,454.15,89.18Z"/><path class="cls-2" d="M106.73,132.34q0,5.52,1.33,8.38c.88,1.91,1.9,3,3.06,3.17a5.93,5.93,0,0,1,3.07,1.53,5.06,5.06,0,0,1,1.33,3.89q0,3.88-5.21,5.31t-15.85,1.43q-9.61,0-14-2.65t-5.21-9.2q-8.17,12.68-28.83,12.67-16.35,0-27.29-10.73T8.18,116.59V82.45A15.84,15.84,0,0,0,4.09,72.23C1.36,69,0,66.64,0,65.27v-.81q0-4.09,4.7-4.71l30.47-4.09q9.6-1.21,9.61,4.09l-.62,60.52q-.19,12.27,3,17.69t10.12,5.42q5.72,0,9.61-5.63t3.88-14.82V82.45a15.78,15.78,0,0,0-4.09-10.22c-2.72-3.28-4.09-5.59-4.09-7v-.81q0-4.09,4.71-4.71l30.46-4.09q9-1.21,9,4.09Z"/><path class="cls-2" d="M188.72,54.64a49.16,49.16,0,0,1,33.63,13Q237,80.61,237,103.92q0,23.51-14.21,38.23t-34,14.72q-15.14,0-24.74-9v1.84c0,3.54-1.78,5.31-5.32,5.31l-30.87-.2q-4.71,0-4.71-3.89v-.81q0-2.46,4.09-7.47a16.17,16.17,0,0,0,4.09-10.32v-93q0-5.33-5-9.92t-5-7v-.82q0-3.27,5.52-5.73L158.25,1.28c2.59-1.36,4.84-1.64,6.75-.82s2.86,2.66,2.86,5.52v54.8Q175.84,54.65,188.72,54.64Zm-3.28,92.21q15.54,0,15.54-25.76A157.09,157.09,0,0,0,199,96.56a73.8,73.8,0,0,0-6.95-22.09q-5-9.81-12-9.81a10.4,10.4,0,0,0-8.9,4.8q-3.36,4.82-3.37,13.19v39.67a28.46,28.46,0,0,0,5.42,17Q178.7,146.85,185.44,146.85Z"/><path class="cls-2" d="M350.85,132.34q0,5.52,1.33,8.38c.88,1.91,1.91,3,3.07,3.17a5.9,5.9,0,0,1,3.06,1.53,5.06,5.06,0,0,1,1.33,3.89q0,3.88-5.21,5.31t-15.85,1.43q-9.61,0-14-2.65c-2.94-1.77-4.67-4.84-5.22-9.2q-8.17,12.68-28.82,12.67-16.37,0-27.3-10.73T252.3,116.59V82.45a15.78,15.78,0,0,0-4.09-10.22c-2.73-3.28-4.09-5.59-4.09-7v-.81q0-4.09,4.71-4.71l30.46-4.09q9.6-1.21,9.61,4.09l-.61,60.52q-.21,12.27,3,17.69t10.12,5.42q5.73,0,9.61-5.63t3.89-14.82V82.45a15.84,15.84,0,0,0-4.09-10.22c-2.73-3.28-4.09-5.59-4.09-7v-.81c0-2.73,1.56-4.3,4.7-4.71l30.46-4.09q9-1.21,9,4.09Z"/><path class="cls-2" d="M242.49,286.52q-15.54,0-24.44-9.82t-8.89-28V200.24h-7.77a4.55,4.55,0,0,1-4.7-4.71V191c0-3.14,1.56-4.71,4.7-4.71h3.88a24.43,24.43,0,0,0,16.16-5.62,26.16,26.16,0,0,0,8.79-15q1-5.31,5.52-5.31h4.7q5.52,0,5.52,5.31v20.65H267a4.54,4.54,0,0,1,4.7,4.71v4.49a4.54,4.54,0,0,1-4.7,4.71H246v49.07a11.63,11.63,0,0,0,2.66,8.07,8.43,8.43,0,0,0,6.54,3,15,15,0,0,0,13.5-7.57,5.23,5.23,0,0,1,3.27-2.14,3.9,3.9,0,0,1,3.17.71,3.44,3.44,0,0,1,1.33,2.86,32.07,32.07,0,0,1-9.1,22.6Q258.23,286.52,242.49,286.52Z"/><path class="cls-2" d="M386.84,262q0,5.52,1.32,8.39c.89,1.91,1.91,3,3.07,3.17a5.93,5.93,0,0,1,3.07,1.53,5.07,5.07,0,0,1,1.33,3.88c0,2.59-1.74,4.37-5.22,5.32s-8.76,1.43-15.84,1.43q-9.61,0-14-2.66t-5.21-9.2q-8.18,12.68-28.83,12.68-16.36,0-27.3-10.74t-10.93-29.54V212.1a15.84,15.84,0,0,0-4.09-10.23q-4.09-4.91-4.09-7v-.82c0-2.72,1.56-4.29,4.7-4.7l30.46-4.09q9.62-1.23,9.61,4.09l-.61,60.52q-.21,12.27,3,17.69T337.36,273q5.72,0,9.61-5.62t3.88-14.82V212.1a15.79,15.79,0,0,0-4.09-10.23q-4.1-4.91-4.09-7v-.82q0-4.08,4.7-4.7l30.47-4.09q9-1.23,9,4.09Z"/><path class="cls-2" d="M185.44,264a20.53,20.53,0,0,0,3.89,10.12q3.46,5,3.47,7.67v.81c0,2.6-1.63,3.89-4.9,3.89H147c-3.27,0-4.9-1.29-4.9-3.89v-.81q0-2.46,3.88-7.57T149.46,264l-2.05-36.6q-.81-15.13-4-21.47a10.61,10.61,0,0,0-10.13-6.34,11,11,0,0,0-9.91,5.32c-2.25,3.55-3.38,8.38-3.38,14.52V264q0,5.12,4.5,10.22t4.5,7.57v.81c0,2.6-1.63,3.89-4.91,3.89H79.94c-3.27,0-4.91-1.29-4.91-3.89v-.81q0-2.46,4.5-7.57T84,264V223.75a10.51,10.51,0,0,0-2.66-7.26A42,42,0,0,0,76,211.38c-1.84-1.43-2.76-3-2.76-4.6v-.61q0-2.65,4.91-5.12L106.72,187c2.59-1.09,4.54-1.13,5.83-.11s1.94,2.7,1.94,5v9.61q8.6-15.33,29.24-15.33a37.9,37.9,0,0,1,26.38,10q11,10,12.67,32.51Z"/><path class="cls-1" d="M14.43,334.94a5.7,5.7,0,0,1-4.22-1.45,6.13,6.13,0,0,1-1.42-4.42,7.35,7.35,0,0,1,.65-3.25,4.33,4.33,0,0,1,1.94-2,6.86,6.86,0,0,1,3.17-.66,8,8,0,0,1,2.1.25,4.8,4.8,0,0,1,1.61.76,3.32,3.32,0,0,1,1,1.27,4.1,4.1,0,0,1,.36,1.78H18.32a3,3,0,0,0-.29-1.37,2.42,2.42,0,0,0-.79-.92,3.39,3.39,0,0,0-1.21-.5,7,7,0,0,0-1.48-.15,6.1,6.1,0,0,0-1.84.26,3.52,3.52,0,0,0-1.39.81,3.45,3.45,0,0,0-.87,1.42,6.45,6.45,0,0,0-.3,2.09v.35a5.85,5.85,0,0,0,.51,2.64,3.15,3.15,0,0,0,1.46,1.47,5.3,5.3,0,0,0,2.28.45,5.61,5.61,0,0,0,2.27-.39,2.5,2.5,0,0,0,1.27-1.19,4.64,4.64,0,0,0,.39-2v-.25H14.15v-1.11h5.49v5.91h-1l-.17-1.52a3.32,3.32,0,0,1-1.05,1,4.65,4.65,0,0,1-1.4.55A6.9,6.9,0,0,1,14.43,334.94Z"/><path class="cls-1" d="M29.43,334.74l4.51-11.35h1.75l4.53,11.35h-1.4l-1.19-3H31.94l-1.17,3Zm3-4.12h4.79l-1.49-3.79c0-.08-.08-.22-.15-.39s-.14-.38-.22-.61-.16-.45-.25-.68-.16-.44-.24-.63h-.11c-.07.21-.15.46-.26.74s-.21.57-.31.86-.2.52-.28.71Z"/><path class="cls-1" d="M54.26,334.94a9.48,9.48,0,0,1-1.77-.17,4.74,4.74,0,0,1-1.52-.56,3,3,0,0,1-1-1,3.17,3.17,0,0,1-.38-1.61v-.15a.44.44,0,0,1,0-.16h1.3a1.36,1.36,0,0,1,0,.18v.2a1.74,1.74,0,0,0,.43,1.21,2.65,2.65,0,0,0,1.19.73,5.63,5.63,0,0,0,1.7.24,7.27,7.27,0,0,0,.75,0,4.81,4.81,0,0,0,.89-.17,3.15,3.15,0,0,0,.84-.34,1.91,1.91,0,0,0,.62-.58,1.55,1.55,0,0,0,.24-.89,1.51,1.51,0,0,0-.33-1,2.45,2.45,0,0,0-.87-.66,8,8,0,0,0-1.23-.45c-.46-.14-.94-.26-1.42-.38s-1-.26-1.42-.42A5,5,0,0,1,51,328.3a2.86,2.86,0,0,1-.87-.86,2.45,2.45,0,0,1-.32-1.28,2.79,2.79,0,0,1,.26-1.21,2.5,2.5,0,0,1,.81-.94,4.35,4.35,0,0,1,1.39-.6,8.41,8.41,0,0,1,2-.21,7.11,7.11,0,0,1,1.64.18,4.05,4.05,0,0,1,1.34.57,2.69,2.69,0,0,1,.9,1,2.89,2.89,0,0,1,.32,1.42v.2H57.2v-.28a1.47,1.47,0,0,0-.38-1,2.54,2.54,0,0,0-1-.66,4.12,4.12,0,0,0-1.45-.24,6.55,6.55,0,0,0-1.82.22,2.4,2.4,0,0,0-1.06.62,1.23,1.23,0,0,0-.34.86,1.37,1.37,0,0,0,.33.94,2.47,2.47,0,0,0,.87.61,9.92,9.92,0,0,0,1.24.43c.45.13.92.25,1.41.37s1,.26,1.41.42a5.7,5.7,0,0,1,1.24.6,2.84,2.84,0,0,1,.88.88,2.54,2.54,0,0,1,.32,1.31,3,3,0,0,1-.59,1.92,3.35,3.35,0,0,1-1.61,1.09A7.41,7.41,0,0,1,54.26,334.94Z"/><path class="cls-1" d="M72.33,334.74v-10.2h-4v-1.15h9.37v1.15h-4v10.2Z"/><path class="cls-1" d="M87.73,334.74V323.39h6a3.61,3.61,0,0,1,1.86.43A2.73,2.73,0,0,1,96.65,325a3.52,3.52,0,0,1,.37,1.65,3.7,3.7,0,0,1-.55,2A3,3,0,0,1,95,329.84l2.42,4.9H96l-2.27-4.67H89v4.67ZM89,329h4.52a2.06,2.06,0,0,0,1.58-.62,2.78,2.78,0,0,0,.34-2.83,1.75,1.75,0,0,0-.73-.72,2.41,2.41,0,0,0-1.19-.26H89Z"/><path class="cls-1" d="M112.81,334.94a6.47,6.47,0,0,1-3-.66,4.43,4.43,0,0,1-1.94-2,8.15,8.15,0,0,1,0-6.52,4.41,4.41,0,0,1,1.94-1.95,7.36,7.36,0,0,1,6,0,4.36,4.36,0,0,1,1.94,1.95,8.27,8.27,0,0,1,0,6.52,4.38,4.38,0,0,1-1.94,2A6.46,6.46,0,0,1,112.81,334.94Zm0-1.13a5.78,5.78,0,0,0,1.77-.25,3.54,3.54,0,0,0,1.36-.82,3.77,3.77,0,0,0,.86-1.43,6,6,0,0,0,.31-2.06v-.35a6.08,6.08,0,0,0-.31-2.08,3.66,3.66,0,0,0-.86-1.42,3.32,3.32,0,0,0-1.36-.82,5.77,5.77,0,0,0-1.77-.26,5.66,5.66,0,0,0-1.76.26,3.35,3.35,0,0,0-1.35.82,3.8,3.8,0,0,0-.87,1.42,6.35,6.35,0,0,0-.3,2.08v.35a6.26,6.26,0,0,0,.3,2.06,3.92,3.92,0,0,0,.87,1.43,3.58,3.58,0,0,0,1.35.82A5.67,5.67,0,0,0,112.81,333.81Z"/><path class="cls-1" d="M129.13,334.74V323.39h1.27l5.81,7.84.24.32.28.4.24.37h.08v-8.93h1.27v11.35h-1.14l-5.92-8c-.07-.12-.2-.29-.36-.53l-.43-.6h-.07v9.13Z"/><path class="cls-1" d="M154.61,334.94a6.47,6.47,0,0,1-3-.66,4.43,4.43,0,0,1-1.94-2,8.15,8.15,0,0,1,0-6.52,4.41,4.41,0,0,1,1.94-1.95,7.36,7.36,0,0,1,6,0,4.36,4.36,0,0,1,1.94,1.95,8.27,8.27,0,0,1,0,6.52,4.38,4.38,0,0,1-1.94,2A6.46,6.46,0,0,1,154.61,334.94Zm0-1.13a5.78,5.78,0,0,0,1.77-.25,3.43,3.43,0,0,0,1.35-.82,3.67,3.67,0,0,0,.87-1.43,6,6,0,0,0,.31-2.06v-.35a6.08,6.08,0,0,0-.31-2.08,3.56,3.56,0,0,0-.87-1.42,3.22,3.22,0,0,0-1.35-.82,5.77,5.77,0,0,0-1.77-.26,5.66,5.66,0,0,0-1.76.26,3.28,3.28,0,0,0-1.35.82,3.8,3.8,0,0,0-.87,1.42,6.35,6.35,0,0,0-.3,2.08v.35a6.26,6.26,0,0,0,.3,2.06,3.92,3.92,0,0,0,.87,1.43,3.51,3.51,0,0,0,1.35.82A5.67,5.67,0,0,0,154.61,333.81Z"/><path class="cls-1" d="M170.93,334.74V323.39h2l3,7.86c.07.19.13.39.2.6l.19.61c.06.2.11.36.14.49h.1c0-.15.1-.33.17-.54s.13-.42.19-.62.11-.39.17-.54l3-7.86h2v11.35h-1.31v-7.06c0-.28,0-.59,0-.94s0-.68,0-1,0-.59,0-.76h-.12c0,.16-.1.36-.17.58l-.21.69c-.08.23-.14.45-.21.64l-3,7.86h-1.06l-3-7.86-.2-.58c-.06-.2-.13-.43-.19-.66s-.14-.45-.2-.67h-.12c0,.22,0,.49,0,.82s0,.66,0,1,0,.63,0,.9v7.06Z"/><path class="cls-1" d="M193.23,334.74V323.39h1.31v11.35Z"/><path class="cls-1" d="M204.43,334.74l4.51-11.35h1.75l4.53,11.35h-1.4l-1.19-3h-5.69l-1.17,3Zm3-4.12h4.79l-1.49-3.79-.14-.39c-.07-.18-.15-.38-.23-.61s-.16-.45-.25-.68-.16-.44-.24-.63h-.11c-.07.21-.15.46-.26.74s-.21.57-.31.86l-.27.71Z"/><path class="cls-1" d="M236.93,334.74V323.39h1.31v11.35Z"/><path class="cls-1" d="M249.5,334.74V323.39h1.27l5.81,7.84.24.32.28.4.24.37h.08v-8.93h1.27v11.35h-1.14l-5.92-8c-.07-.12-.19-.29-.36-.53l-.43-.6h-.07v9.13Z"/><path class="cls-1" d="M274.72,334.94a6.14,6.14,0,0,1-2.94-.65,4.21,4.21,0,0,1-1.82-2,7.66,7.66,0,0,1-.62-3.27,6.13,6.13,0,0,1,1.42-4.41,5.29,5.29,0,0,1,4-1.46,6.54,6.54,0,0,1,2.59.47,3.92,3.92,0,0,1,1.75,1.4,4.2,4.2,0,0,1,.63,2.38H278.4a3.27,3.27,0,0,0-.44-1.77,2.69,2.69,0,0,0-1.27-1,5,5,0,0,0-2-.34,4.49,4.49,0,0,0-2.13.48,3.22,3.22,0,0,0-1.41,1.5,6.06,6.06,0,0,0-.49,2.65v.35a5.81,5.81,0,0,0,.49,2.59,3.17,3.17,0,0,0,1.41,1.46,4.64,4.64,0,0,0,2.15.46,5.14,5.14,0,0,0,2-.34,2.64,2.64,0,0,0,1.27-1,3.17,3.17,0,0,0,.45-1.76h1.28a4,4,0,0,1-.65,2.39,3.82,3.82,0,0,1-1.78,1.4A6.89,6.89,0,0,1,274.72,334.94Z"/><path class="cls-1" d="M290.32,334.74V323.39h1.31V333.6h5.61v1.14Z"/><path class="cls-1" d="M311.14,334.94a6,6,0,0,1-2.44-.46,3.25,3.25,0,0,1-1.56-1.46,5.55,5.55,0,0,1-.55-2.61v-7h1.31v7.28a3,3,0,0,0,.85,2.35,3.42,3.42,0,0,0,2.39.77,3.59,3.59,0,0,0,2.46-.77,3,3,0,0,0,.88-2.35v-7.28h1.29v7a5.43,5.43,0,0,1-.55,2.61,3.27,3.27,0,0,1-1.59,1.46A6.22,6.22,0,0,1,311.14,334.94Z"/><path class="cls-1" d="M331.16,334.94a9.48,9.48,0,0,1-1.77-.17,4.74,4.74,0,0,1-1.52-.56,3,3,0,0,1-1-1,3.17,3.17,0,0,1-.38-1.61v-.15a.88.88,0,0,1,0-.16h1.3v.18a1.48,1.48,0,0,0,0,.2,1.7,1.7,0,0,0,.44,1.21,2.59,2.59,0,0,0,1.19.73,5.52,5.52,0,0,0,1.69.24,7.27,7.27,0,0,0,.75,0,4.91,4.91,0,0,0,.9-.17,3.22,3.22,0,0,0,.83-.34,1.82,1.82,0,0,0,.62-.58,1.55,1.55,0,0,0,.24-.89,1.51,1.51,0,0,0-.33-1,2.45,2.45,0,0,0-.87-.66,8,8,0,0,0-1.23-.45c-.46-.14-.94-.26-1.42-.38a14.51,14.51,0,0,1-1.41-.42,5.24,5.24,0,0,1-1.24-.58,2.72,2.72,0,0,1-.86-.86,2.37,2.37,0,0,1-.33-1.28A2.66,2.66,0,0,1,327,325a2.34,2.34,0,0,1,.81-.94,4.16,4.16,0,0,1,1.39-.6,8.35,8.35,0,0,1,2-.21,7,7,0,0,1,1.63.18,4,4,0,0,1,1.34.57,2.69,2.69,0,0,1,.9,1,2.89,2.89,0,0,1,.33,1.42v.2h-1.29v-.28a1.51,1.51,0,0,0-.38-1,2.65,2.65,0,0,0-1-.66,4.08,4.08,0,0,0-1.45-.24,6.6,6.6,0,0,0-1.82.22,2.31,2.31,0,0,0-1.05.62,1.2,1.2,0,0,0-.35.86,1.37,1.37,0,0,0,.33.94,2.42,2.42,0,0,0,.88.61,9.22,9.22,0,0,0,1.23.43l1.41.37c.49.12,1,.26,1.42.42a5.94,5.94,0,0,1,1.24.6,2.81,2.81,0,0,1,.87.88,2.45,2.45,0,0,1,.32,1.31,3,3,0,0,1-.58,1.92,3.4,3.4,0,0,1-1.61,1.09A7.52,7.52,0,0,1,331.16,334.94Z"/><path class="cls-1" d="M346.46,334.74V323.39h1.31v11.35Z"/><path class="cls-1" d="M362,334.74l-4.28-11.35h1.4l3,8.14.21.6c.08.23.16.45.23.67s.15.41.2.58h.12c.05-.16.12-.35.2-.57l.23-.66c.07-.23.15-.43.21-.6l3-8.16h1.38l-4.3,11.35Z"/><path class="cls-1" d="M376,334.74l4.51-11.35h1.76l4.53,11.35h-1.41l-1.19-3h-5.69l-1.17,3Zm3-4.12h4.79l-1.48-3.79a4.15,4.15,0,0,1-.15-.39l-.23-.61-.24-.68-.24-.63h-.12c-.07.21-.15.46-.26.74s-.21.57-.31.86l-.27.71Z"/></svg>